<?xml version="1.0" encoding="UTF-8" standalone="no"?>
<!-- Created with Inkscape (http://www.inkscape.org/) -->

<svg
   xmlns:dc="http://purl.org/dc/elements/1.1/"
   xmlns:cc="http://creativecommons.org/ns#"
   xmlns:rdf="http://www.w3.org/1999/02/22-rdf-syntax-ns#"
   xmlns:svg="http://www.w3.org/2000/svg"
   xmlns="http://www.w3.org/2000/svg"
   xmlns:sodipodi="http://sodipodi.sourceforge.net/DTD/sodipodi-0.dtd"
   xmlns:inkscape="http://www.inkscape.org/namespaces/inkscape"
   width="48"
   height="48"
   viewBox="0 0 48 48"
   id="svg2"
   version="1.1"
   inkscape:version="0.91 r13725"
   sodipodi:docname="gitea-branch.svg">
  <defs
     id="defs4" />
  <sodipodi:namedview
     id="base"
     pagecolor="#ffffff"
     bordercolor="#666666"
     borderopacity="1.0"
     inkscape:pageopacity="0.0"
     inkscape:pageshadow="2"
     inkscape:zoom="10.052083"
     inkscape:cx="48"
     inkscape:cy="48.000017"
     inkscape:document-units="px"
     inkscape:current-layer="layer1"
     showgrid="false"
     units="px"
     inkscape:window-width="1920"
     inkscape:window-height="1151"
     inkscape:window-x="0"
     inkscape:window-y="1"
     inkscape:window-maximized="1" />
  <metadata
     id="metadata7">
    <rdf:RDF>
      <cc:Work
         rdf:about="">
        <dc:format>image/svg+xml</dc:format>
        <dc:type
           rdf:resource="http://purl.org/dc/dcmitype/StillImage" />
        <dc:title></dc:title>
      </cc:Work>
    </rdf:RDF>
  </metadata>
  <g
     inkscape:label="Layer 1"
     inkscape:groupmode="layer"
     id="layer1"
     transform="translate(0,-1004.3622)">
    <path
       inkscape:connector-curvature="0"
       id="path4"
       d="m 39,1019.3622 c 0,-3.33 -2.67,-6 -6.000001,-6 -3.329999,0 -5.999999,2.67 -5.999999,6 0,2.19 1.229999,4.14 2.999999,5.16 l 0,0.9 c -0.06,1.56 -0.689999,2.94 -1.889999,4.14 -1.200001,1.2 -2.58,1.83 -4.140001,1.89 -2.489999,0.06 -4.439999,0.48 -5.999999,1.35 l 0,-14.28 c 1.77,-1.02 3,-2.94 3,-5.16 0,-3.33 -2.67,-6 -6.000001,-6 -3.329999,0 -5.9699991,2.67 -5.9699991,6 0,2.19 1.2300001,4.14 3.0000001,5.16 l 0,19.68 c -1.77,1.05 -3.0000001,2.97 -3.0000001,5.16 0,3.33 2.6700001,6 6.0000001,6 3.329999,0 6,-2.67 6,-6 0,-1.59 -0.6,-3 -1.590001,-4.08 0.270001,-0.18 1.440001,-1.23 1.770001,-1.41 0.749999,-0.33 1.68,-0.51 2.82,-0.51 3.15,-0.15 5.849999,-1.35 8.25,-3.75 2.4,-2.4 3.6,-5.94 3.749999,-9.06 l -0.06,0 c 1.83,-1.08 3.060001,-3 3.060001,-5.19 z m -24,-9.6 c 1.98,0 3.6,1.65 3.6,3.6 0,1.95 -1.650001,3.6 -3.6,3.6 -1.95,0 -3.6,-1.65 -3.6,-3.6 0,-1.95 1.65,-3.6 3.6,-3.6 z m 0,37.23 c -1.98,0 -3.6,-1.65 -3.6,-3.6 0,-1.95 1.65,-3.6 3.6,-3.6 1.949999,0 3.6,1.65 3.6,3.6 0,1.95 -1.650001,3.6 -3.6,3.6 z m 17.999999,-24 c -1.979999,0 -3.599999,-1.65 -3.599999,-3.6 0,-1.95 1.649999,-3.6 3.599999,-3.6 1.95,0 3.600001,1.65 3.600001,3.6 0,1.95 -1.650001,3.6 -3.600001,3.6 z" />
  </g>
</svg>
